<?xml version="1.0" encoding="utf-8"?>
<!-- Generator: Adobe Illustrator 23.0.2, SVG Export Plug-In . SVG Version: 6.00 Build 0)  -->
<svg version="1.1" id="Layer_1" xmlns="http://www.w3.org/2000/svg" xmlns:xlink="http://www.w3.org/1999/xlink" x="0px" y="0px"
	 viewBox="0 0 350 100" style="enable-background:new 0 0 350 100;" xml:space="preserve">
<style type="text/css">
	.st0{fill:url(#SVGID_1_);}
	.st1{fill:url(#SVGID_2_);}
	.st2{fill:url(#SVGID_3_);}
	.st3{fill:url(#SVGID_4_);}
	.st4{fill:url(#SVGID_5_);}
	.st5{fill:url(#SVGID_6_);}
	.st6{fill:url(#SVGID_7_);}
	.st7{fill:url(#SVGID_8_);}
	.st8{fill:url(#SVGID_9_);}
	.st9{fill:url(#SVGID_10_);}
	.st10{fill:url(#SVGID_11_);}
	.st11{fill:#5643FB;}
	.st12{fill:url(#SVGID_12_);}
	.st13{fill:url(#SVGID_13_);}
	.st14{fill:url(#SVGID_14_);}
	.st15{fill:url(#SVGID_15_);}
	.st16{fill:url(#SVGID_16_);}
	.st17{fill:url(#SVGID_17_);}
	.st18{fill:url(#SVGID_18_);}
</style>
<g>
	<g>
		<linearGradient id="SVGID_1_" gradientUnits="userSpaceOnUse" x1="53.4694" y1="14.8277" x2="7.9523" y2="39.0598">
			<stop  offset="0.1201" style="stop-color:#5643FB"/>
			<stop  offset="0.7179" style="stop-color:#09CBFB"/>
		</linearGradient>
		<polygon class="st0" points="52.59,18.1 46.88,14.8 25.93,26.89 25.93,28.03 35.32,28.03 		"/>
		<linearGradient id="SVGID_2_" gradientUnits="userSpaceOnUse" x1="65.4846" y1="37.3967" x2="19.9674" y2="61.6288">
			<stop  offset="0.1201" style="stop-color:#5643FB"/>
			<stop  offset="0.7179" style="stop-color:#09CBFB"/>
		</linearGradient>
		<polygon class="st1" points="77.56,32.51 74.45,30.72 69.01,33.85 69.01,37.42 		"/>
		<linearGradient id="SVGID_3_" gradientUnits="userSpaceOnUse" x1="59.7058" y1="26.5419" x2="14.1887" y2="50.7741">
			<stop  offset="0.1201" style="stop-color:#5643FB"/>
			<stop  offset="0.7179" style="stop-color:#09CBFB"/>
		</linearGradient>
		<polygon class="st2" points="65.07,25.3 61.97,23.51 54.12,28.03 60.33,28.03 		"/>
		<linearGradient id="SVGID_4_" gradientUnits="userSpaceOnUse" x1="68.4293" y1="42.928" x2="22.9122" y2="67.1602">
			<stop  offset="0.1201" style="stop-color:#5643FB"/>
			<stop  offset="0.7179" style="stop-color:#09CBFB"/>
		</linearGradient>
		<polygon class="st3" points="78.78,39 78.78,35.42 69.01,41.04 69.01,44.61 		"/>
		<linearGradient id="SVGID_5_" gradientUnits="userSpaceOnUse" x1="56.8886" y1="21.2502" x2="11.3715" y2="45.4823">
			<stop  offset="0.1201" style="stop-color:#5643FB"/>
			<stop  offset="0.7179" style="stop-color:#09CBFB"/>
		</linearGradient>
		<polygon class="st4" points="58.83,21.7 55.73,19.91 41.61,28.03 47.83,28.03 		"/>
		<linearGradient id="SVGID_6_" gradientUnits="userSpaceOnUse" x1="81.0492" y1="66.633" x2="35.5321" y2="90.8651">
			<stop  offset="0.1201" style="stop-color:#5643FB"/>
			<stop  offset="0.7179" style="stop-color:#09CBFB"/>
		</linearGradient>
		<polygon class="st5" points="59.54,75.25 41.72,85.5 46.88,88.48 78.78,70.06 78.78,64.19 69.01,69.8 69.01,75.25 		"/>
		<linearGradient id="SVGID_7_" gradientUnits="userSpaceOnUse" x1="74.3954" y1="54.1345" x2="28.8782" y2="78.3667">
			<stop  offset="0.1201" style="stop-color:#5643FB"/>
			<stop  offset="0.7179" style="stop-color:#09CBFB"/>
		</linearGradient>
		<polygon class="st6" points="78.78,53.38 78.78,49.8 69.01,55.42 69.01,58.99 		"/>
		<linearGradient id="SVGID_8_" gradientUnits="userSpaceOnUse" x1="75.1116" y1="55.4798" x2="29.5944" y2="79.7119">
			<stop  offset="0.1201" style="stop-color:#5643FB"/>
			<stop  offset="0.7179" style="stop-color:#09CBFB"/>
		</linearGradient>
		<polygon class="st7" points="29.24,78.29 32.34,80.09 40.74,75.25 34.52,75.25 		"/>
		<linearGradient id="SVGID_9_" gradientUnits="userSpaceOnUse" x1="71.4124" y1="48.5313" x2="25.8952" y2="72.7634">
			<stop  offset="0.1201" style="stop-color:#5643FB"/>
			<stop  offset="0.7179" style="stop-color:#09CBFB"/>
		</linearGradient>
		<polygon class="st8" points="78.78,46.19 78.78,42.61 69.01,48.23 69.01,51.8 		"/>
		<linearGradient id="SVGID_10_" gradientUnits="userSpaceOnUse" x1="77.3784" y1="59.7378" x2="31.8613" y2="83.9699">
			<stop  offset="0.1201" style="stop-color:#5643FB"/>
			<stop  offset="0.7179" style="stop-color:#09CBFB"/>
		</linearGradient>
		<polygon class="st9" points="78.78,60.57 78.78,57 69.01,62.61 69.01,66.19 		"/>
		<linearGradient id="SVGID_11_" gradientUnits="userSpaceOnUse" x1="77.9287" y1="60.7714" x2="32.4116" y2="85.0036">
			<stop  offset="0.1201" style="stop-color:#5643FB"/>
			<stop  offset="0.7179" style="stop-color:#09CBFB"/>
		</linearGradient>
		<polygon class="st10" points="35.48,81.9 38.58,83.69 53.25,75.25 47.03,75.25 		"/>
	</g>
	<rect x="31.98" y="47.05" class="st11" width="8.62" height="9.18"/>
	<linearGradient id="SVGID_12_" gradientUnits="userSpaceOnUse" x1="82.402" y1="-4.4821" x2="14.6175" y2="102.5978">
		<stop  offset="0.1201" style="stop-color:#5643FB"/>
		<stop  offset="0.7179" style="stop-color:#09CBFB"/>
	</linearGradient>
	<path class="st12" d="M46.88,5.81L7.19,28.72v45.83l39.69,22.91l39.69-22.91V28.72L46.88,5.81z M81.89,71.86L46.88,92.07
		L11.86,71.86v-6.88h14.07V38.37H11.86v-6.95L46.88,11.2l35.02,20.22V71.86z"/>
	<polygon class="st11" points="25.93,29.2 59.46,29.2 62.26,29.2 67.85,29.2 67.85,47.05 67.85,56.23 67.85,74.09 62.49,74.09 
		59.46,74.09 25.93,74.09 25.93,64.91 59.46,64.91 59.46,56.23 48.52,56.23 48.52,47.05 59.46,47.05 59.46,38.37 25.93,38.37 	"/>
	<g>
		<path d="M100.94,21.44h-4.23v-5.19h0.85v4.28h3.37V21.44z"/>
		<path d="M113,21.44h-4.23v-5.19H113v0.9h-3.38v3.38H113V21.44z M112.78,19.26h-2.8v-0.9h2.8V19.26z"/>
		<path d="M127.41,21.44l-1.1-0.01l-0.82-1.45h-2.33l0.52-0.9h1.29l-0.85-1.49l-2.21,3.85h-1.1l2.66-4.69
			c0.07-0.12,0.16-0.23,0.28-0.33c0.14-0.12,0.27-0.17,0.39-0.17c0.12,0,0.25,0.06,0.39,0.17c0.11,0.1,0.21,0.21,0.28,0.34
			L127.41,21.44z"/>
		<path d="M140.74,21.44h-1.25l-1.37-1.46h-1.84v-0.9h2.3c0.32,0,0.58-0.07,0.8-0.22c0.24-0.17,0.37-0.42,0.37-0.73
			c0-0.65-0.39-0.97-1.16-0.97h-2.8v4.28h-0.85v-5.19h3.52c0.63,0,1.14,0.14,1.53,0.43c0.44,0.33,0.67,0.81,0.67,1.45
			c0,0.44-0.13,0.81-0.39,1.13c-0.24,0.29-0.57,0.5-0.98,0.62L140.74,21.44z"/>
		<path d="M153.61,20.99c0,0.33-0.11,0.5-0.32,0.5c-0.16,0-0.34-0.1-0.53-0.31l-3.14-3.34v3.6h-0.85V16.7
			c0-0.12,0.03-0.23,0.09-0.32c0.06-0.09,0.15-0.13,0.27-0.13c0.16,0,0.32,0.09,0.49,0.27l3.14,3.33v-3.6h0.85V20.99z"/>
		<path d="M178.71,21.44h-0.96l-0.71-3.63l-1.64,3.35c-0.11,0.23-0.26,0.34-0.46,0.34c-0.22,0-0.39-0.12-0.5-0.35l-1.64-3.34
			l-0.7,3.63h-0.97l1.09-4.76c0.03-0.14,0.09-0.26,0.19-0.36c0.1-0.1,0.21-0.15,0.34-0.15c0.19,0,0.36,0.17,0.53,0.51l1.64,3.4
			l1.65-3.4c0.17-0.34,0.34-0.51,0.53-0.51c0.12,0,0.24,0.05,0.34,0.16c0.09,0.1,0.15,0.21,0.19,0.35L178.71,21.44z"/>
		<path d="M192.98,18.79c0,0.76-0.23,1.4-0.7,1.9c-0.46,0.5-1.05,0.75-1.77,0.75h-1.37c-0.71,0-1.3-0.25-1.77-0.75
			c-0.47-0.5-0.7-1.13-0.7-1.9c0-0.76,0.23-1.37,0.69-1.84c0.46-0.47,1.05-0.7,1.78-0.7h1.37c0.73,0,1.32,0.23,1.78,0.7
			C192.75,17.42,192.98,18.03,192.98,18.79z M192.14,18.86c0-0.5-0.15-0.91-0.46-1.23c-0.3-0.32-0.69-0.48-1.17-0.48h-1.37
			c-0.47,0-0.86,0.16-1.16,0.48c-0.3,0.32-0.46,0.73-0.46,1.23c0,0.5,0.15,0.9,0.46,1.21c0.3,0.31,0.69,0.46,1.16,0.46h1.37
			c0.47,0,0.86-0.15,1.17-0.46C191.98,19.76,192.14,19.36,192.14,18.86z"/>
		<path d="M206.6,21.44h-1.26l-1.37-1.46h-1.84v-0.9h2.3c0.32,0,0.58-0.07,0.8-0.22c0.24-0.17,0.37-0.42,0.37-0.73
			c0-0.65-0.39-0.97-1.16-0.97h-2.8v4.28h-0.85v-5.19h3.52c0.63,0,1.14,0.14,1.53,0.43c0.44,0.33,0.67,0.81,0.67,1.45
			c0,0.44-0.13,0.81-0.39,1.13c-0.24,0.29-0.57,0.5-0.98,0.62L206.6,21.44z"/>
		<path d="M218.81,21.44h-4.23v-5.19h4.23v0.9h-3.38v3.38h3.38V21.44z M218.59,19.26h-2.8v-0.9h2.8V19.26z"/>
		<path d="M227.78,21c0,0.14-0.04,0.25-0.12,0.33c-0.08,0.09-0.19,0.13-0.32,0.13c-0.12,0-0.23-0.04-0.31-0.13
			c-0.08-0.09-0.13-0.2-0.13-0.33c0-0.13,0.04-0.24,0.13-0.33c0.08-0.09,0.19-0.13,0.31-0.13c0.13,0,0.23,0.04,0.32,0.13
			C227.74,20.76,227.78,20.86,227.78,21z"/>
		<path d="M240.34,21.44h-4.23v-5.19h4.23v0.9h-3.38v3.38h3.38V21.44z M240.12,19.26h-2.8v-0.9h2.8V19.26z"/>
		<path d="M254.76,21.44l-1.1-0.01l-0.82-1.45h-2.33l0.51-0.9h1.29l-0.85-1.49l-2.21,3.85h-1.1l2.66-4.69
			c0.07-0.12,0.16-0.23,0.28-0.33c0.14-0.12,0.27-0.17,0.39-0.17c0.12,0,0.25,0.06,0.39,0.17c0.11,0.1,0.21,0.21,0.28,0.34
			L254.76,21.44z"/>
		<path d="M268.08,21.44h-1.26l-1.37-1.46h-1.84v-0.9h2.3c0.32,0,0.58-0.07,0.8-0.22c0.24-0.17,0.37-0.42,0.37-0.73
			c0-0.65-0.39-0.97-1.16-0.97h-2.8v4.28h-0.85v-5.19h3.52c0.63,0,1.14,0.14,1.53,0.43c0.44,0.33,0.67,0.81,0.67,1.45
			c0,0.44-0.13,0.81-0.39,1.13c-0.24,0.29-0.57,0.5-0.98,0.62L268.08,21.44z"/>
		<path d="M280.95,20.99c0,0.33-0.11,0.5-0.32,0.5c-0.16,0-0.34-0.1-0.53-0.31l-3.14-3.34v3.6h-0.85V16.7
			c0-0.12,0.03-0.23,0.09-0.32c0.06-0.09,0.15-0.13,0.27-0.13c0.16,0,0.32,0.09,0.49,0.27l3.14,3.33v-3.6h0.85V20.99z"/>
		<path d="M299.6,21.44h-0.85v-5.19h0.85V21.44z M303.72,21.44h-0.85v-2.16h-2.88v-0.9h2.88v-2.13h0.85V21.44z"/>
		<path d="M312.74,21.44h-0.85v-5.19h0.85V21.44z"/>
		<path d="M326.53,21.44h-3.11c-0.71,0-1.3-0.25-1.77-0.75c-0.47-0.5-0.7-1.13-0.7-1.9c0-0.76,0.23-1.37,0.69-1.84
			c0.46-0.47,1.05-0.7,1.78-0.7h2.76v0.9h-2.76c-0.47,0-0.86,0.16-1.16,0.48c-0.3,0.32-0.46,0.73-0.46,1.23
			c0,0.5,0.15,0.9,0.46,1.21c0.3,0.31,0.69,0.46,1.16,0.46h2.26V19.4h-2.32v-0.83h3.18V21.44z"/>
		<path d="M335.36,21.44h-0.85v-5.19h0.85V21.44z M339.48,21.44h-0.85v-2.16h-2.88v-0.9h2.88v-2.13h0.85V21.44z"/>
	</g>
	<g>
		<path d="M156.78,92.3V81.56h1.69V92.3H156.78z"/>
		<path d="M166.8,83.11v-1.55h5.1v1.55h-1.72v9.19h-1.66v-9.19H166.8z"/>
		<path d="M190.2,92.3l1.77-10.75h2.16l1.76,10.75h-1.7l-0.33-2.33h-1.67l-0.36,2.33H190.2z M192.39,88.45h1.26l-0.56-4.49h-0.1
			L192.39,88.45z"/>
		<path d="M204.25,89.55v-5.51c0-0.85,0.23-1.51,0.69-1.99c0.46-0.48,1.1-0.72,1.91-0.72c0.77,0,1.38,0.25,1.82,0.74
			c0.45,0.49,0.67,1.17,0.67,2.02v1.03h-1.7v-1.18c0-0.37-0.07-0.65-0.22-0.84c-0.14-0.19-0.36-0.28-0.64-0.28s-0.5,0.09-0.64,0.28
			c-0.14,0.19-0.22,0.46-0.22,0.84v6c0,0.37,0.07,0.65,0.22,0.84c0.14,0.19,0.36,0.28,0.64,0.28s0.5-0.09,0.64-0.28
			c0.14-0.19,0.22-0.47,0.22-0.84v-1.46h1.7v1.12c0,0.94-0.22,1.67-0.67,2.18c-0.44,0.51-1.07,0.77-1.89,0.77
			c-0.84,0-1.47-0.25-1.9-0.76C204.47,91.27,204.25,90.53,204.25,89.55z"/>
		<path d="M217.61,92.3l1.77-10.75h2.16l1.76,10.75h-1.7l-0.33-2.33h-1.67l-0.36,2.33H217.61z M219.81,88.45h1.26l-0.56-4.49h-0.1
			L219.81,88.45z"/>
		<path d="M231.87,92.3V81.56h2.36c0.91,0,1.59,0.24,2.03,0.72c0.44,0.48,0.66,1.22,0.66,2.23v4.8c0,1.05-0.21,1.81-0.62,2.28
			c-0.42,0.48-1.08,0.71-1.98,0.71H231.87z M233.51,90.72h0.84c0.29,0,0.51-0.09,0.65-0.28c0.14-0.18,0.21-0.47,0.21-0.85v-5.17
			c0-0.44-0.11-0.76-0.32-0.97c-0.21-0.21-0.55-0.31-1-0.31h-0.38V90.72z"/>
		<path d="M246.02,92.3V81.56h4.32v1.55h-2.67v2.82h1.92v1.55h-1.92v3.21h2.67v1.61H246.02z"/>
		<path d="M259.24,92.3V81.56h2.21l1.08,5.95c0.04,0.24,0.08,0.49,0.1,0.77c0.02,0.27,0.03,0.55,0.03,0.85
			c0-0.25,0.01-0.5,0.04-0.77c0.03-0.26,0.07-0.54,0.12-0.83l1.03-5.97h2.24V92.3h-1.55v-6.78c0-0.19,0.01-0.45,0.03-0.78
			c0.02-0.33,0.05-0.69,0.09-1.09c-0.02,0.14-0.06,0.34-0.1,0.59c-0.08,0.48-0.13,0.79-0.16,0.93l-1.35,7.13h-0.82l-1.29-7.14
			c-0.05-0.29-0.1-0.6-0.16-0.94c-0.06-0.34-0.09-0.53-0.1-0.57c0.03,0.37,0.06,0.71,0.08,1.03c0.02,0.32,0.03,0.6,0.03,0.84v6.78
			H259.24z"/>
		<path d="M274.34,81.56h1.68l1.08,4.3h0.1l1.03-4.3h1.69l-1.93,6.29v4.46h-1.66v-4.26L274.34,81.56z"/>
	</g>
	<g>
		<linearGradient id="SVGID_13_" gradientUnits="userSpaceOnUse" x1="110.2191" y1="51.7262" x2="342.5529" y2="62.5324">
			<stop  offset="0.1201" style="stop-color:#5643FB"/>
			<stop  offset="0.7179" style="stop-color:#09CBFB"/>
		</linearGradient>
		<path class="st13" d="M150.09,74.43l-8.4-0.07l-6.24-12.6h-17.73l3.92-7.85h9.87l-6.48-12.94L108.2,74.43h-8.35l20.29-40.77
			c0.51-1.06,1.22-2.02,2.13-2.9c1.09-1.01,2.08-1.52,2.95-1.52c0.95,0,1.93,0.48,2.95,1.45c0.87,0.84,1.59,1.83,2.13,2.97
			L150.09,74.43z"/>
		<linearGradient id="SVGID_14_" gradientUnits="userSpaceOnUse" x1="110.3432" y1="49.0578" x2="342.6771" y2="59.864">
			<stop  offset="0.1201" style="stop-color:#5643FB"/>
			<stop  offset="0.7179" style="stop-color:#09CBFB"/>
		</linearGradient>
		<path class="st14" d="M193.24,60.51c0,4.27-1.26,7.7-3.77,10.29c-2.41,2.42-5.41,3.63-9.02,3.63h-28.49v-7.85h28.49
			c1.79,0,3.34-0.48,4.65-1.45c1.49-1.19,2.24-2.79,2.24-4.82c0-2.02-0.77-3.58-2.3-4.68c-1.28-0.92-2.81-1.39-4.59-1.39h-17.61
			c-3.24,0-5.96-1.08-8.15-3.23c-2.33-2.33-3.5-5.41-3.5-9.24c0-3.78,1.17-6.84,3.5-9.17c2.19-2.15,4.9-3.23,8.15-3.23h28.16v7.85
			h-28.16c-1.24,0-2.3,0.42-3.17,1.25c-0.87,0.84-1.31,1.96-1.31,3.36c0,1.45,0.44,2.57,1.31,3.36c0.87,0.79,1.93,1.19,3.17,1.19
			h17.61c3.61,0,6.62,1.25,9.02,3.76C191.98,52.79,193.24,56.24,193.24,60.51z"/>
		<linearGradient id="SVGID_15_" gradientUnits="userSpaceOnUse" x1="110.4301" y1="47.1879" x2="342.764" y2="57.9942">
			<stop  offset="0.1201" style="stop-color:#5643FB"/>
			<stop  offset="0.7179" style="stop-color:#09CBFB"/>
		</linearGradient>
		<path class="st15" d="M239.88,45.6c0,4.93-1.5,8.91-4.48,11.94c-2.77,2.82-6.25,4.22-10.44,4.22h-16.46v-7.85h17.5
			c2.15,0,3.96-0.77,5.41-2.3c1.46-1.53,2.19-3.57,2.19-6.11c0-2.54-0.73-4.55-2.19-6.04c-1.46-1.49-3.26-2.23-5.41-2.23h-21.32
			v37.2h-6.51V29.37h26.79c4.19,0,7.67,1.43,10.44,4.29C238.38,36.65,239.88,40.63,239.88,45.6z"/>
		<linearGradient id="SVGID_16_" gradientUnits="userSpaceOnUse" x1="110.5102" y1="45.4657" x2="342.8441" y2="56.2719">
			<stop  offset="0.1201" style="stop-color:#5643FB"/>
			<stop  offset="0.7179" style="stop-color:#09CBFB"/>
		</linearGradient>
		<path class="st16" d="M252.13,74.43h-6.51V29.37h6.51V74.43z"/>
		<linearGradient id="SVGID_17_" gradientUnits="userSpaceOnUse" x1="110.5643" y1="44.303" x2="342.8982" y2="55.1092">
			<stop  offset="0.1201" style="stop-color:#5643FB"/>
			<stop  offset="0.7179" style="stop-color:#09CBFB"/>
		</linearGradient>
		<path class="st17" d="M304.61,74.43h-9.56L284.6,61.76h-14.05v-7.85h17.5c2.41,0,4.43-0.63,6.07-1.91
			c1.86-1.49,2.79-3.61,2.79-6.37c0-5.61-2.95-8.41-8.86-8.41h-21.32v37.2h-6.51V29.37h26.79c4.81,0,8.69,1.26,11.65,3.77
			c3.39,2.86,5.09,7.07,5.09,12.62c0,3.79-0.99,7.05-2.97,9.78c-1.83,2.56-4.32,4.34-7.47,5.35L304.61,74.43z"/>
		<linearGradient id="SVGID_18_" gradientUnits="userSpaceOnUse" x1="110.6786" y1="41.8457" x2="343.0125" y2="52.6519">
			<stop  offset="0.1201" style="stop-color:#5643FB"/>
			<stop  offset="0.7179" style="stop-color:#09CBFB"/>
		</linearGradient>
		<path class="st18" d="M343,74.43h-32.26V29.37H343v7.85h-25.75v29.35H343V74.43z M341.31,55.5h-21.32v-7.85h21.32V55.5z"/>
	</g>
</g>
</svg>
